<svg width="925" height="926" viewBox="0 0 925 926" fill="none" xmlns="http://www.w3.org/2000/svg">
<g clip-path="url(#clip0_1224_5064)">
<g clip-path="url(#clip1_1224_5064)">
<path d="M273.844 831.703L276.737 825.481L310.355 841.11L307.462 847.333L307.075 848.164L307.907 848.551L314.133 851.446L295.235 892.112L282.786 886.324L302.07 844.827L302.457 843.996L301.625 843.609L280.457 833.767L279.625 833.38L279.239 834.212L259.955 875.709L247.506 869.921L266.404 829.256L272.627 832.148L273.458 832.534L273.844 831.703ZM356.088 887.203L364.469 858.187L377.658 862.002L363.051 912.558L349.862 908.743L351.767 902.149L352.021 901.269L351.141 901.014L344.548 899.108L346.452 892.514L346.707 891.633L345.826 891.379L339.233 889.473L341.138 882.879L341.392 881.998L340.512 881.744L333.038 879.583L332.157 879.328L331.902 880.209L325.677 901.748L312.491 897.936L327.098 847.38L340.284 851.193L336.22 865.261L335.966 866.141L336.847 866.396L343.44 868.302L341.535 874.896L341.281 875.776L342.161 876.031L348.754 877.937L346.85 884.531L346.595 885.411L347.476 885.666L354.952 887.83L355.833 888.085L356.088 887.203ZM421.64 897.367L391.679 893.514L392.437 887.617L422.395 891.468L423.304 891.585L423.421 890.675L425.401 875.242L425.517 874.333L424.608 874.216L386.932 869.373L387.688 863.474L439.889 870.185L433.194 922.383L380.993 915.672L381.751 909.775L419.426 914.619L420.335 914.736L420.452 913.826L422.432 898.393L422.549 897.484L421.64 897.367ZM474.147 899.696L473.764 885.058L479.709 884.904L480.092 899.543L480.116 900.459L481.032 900.436L488.81 900.235L489.726 900.211L489.702 899.294L488.913 869.1L502.635 868.746L504.009 921.355L490.287 921.71L490.109 914.85L490.085 913.934L489.169 913.957L482.307 914.134L482.127 907.271L482.103 906.355L481.187 906.379L473.409 906.58L472.492 906.604L472.516 907.521L472.697 914.383L465.836 914.56L464.919 914.584L464.943 915.5L465.121 922.36L451.399 922.715L450.025 870.105L463.747 869.75L464.536 899.945L464.56 900.861L465.477 900.838L473.254 900.637L474.171 900.613L474.147 899.696Z" stroke="#DFDC01" stroke-width="1.83364"/>
<path d="M120.648 684.631L113.9 688.502L117.774 695.251L77.2881 718.478L69.5417 704.981L110.027 681.753L98.407 661.507L57.9216 684.735L50.1752 671.237L90.6603 648.009L94.5338 654.758L101.282 650.887L120.648 684.631Z" fill="#2D2650"/>
<path d="M163.626 740.316L121.102 774.329L111.379 762.174L117.454 757.315L112.595 751.241L118.67 746.382L113.809 740.305L119.884 735.446L115.023 729.369L96.7979 743.945L87.0773 731.793L129.603 697.781L139.325 709.936L127.173 719.651L132.034 725.728L125.959 730.587L130.82 736.664L124.745 741.523L129.607 747.6L153.906 728.165L163.626 740.316Z" fill="#2D2650"/>
<path d="M209.764 782.694L172.946 822.814L132.813 785.986L138.075 780.257L166.739 806.56L177.26 795.099L154.325 774.053L159.584 768.321L182.519 789.366L193.037 777.902L164.369 751.596L169.628 745.864L209.764 782.694Z" fill="#2D2650"/>
<path d="M261.84 817.51L231.602 862.797L218.66 854.153L222.979 847.683L216.509 843.363L220.828 836.892L214.356 832.569L210.037 839.039L203.567 834.719L199.245 841.187L186.303 832.543L216.542 787.256L229.483 795.9L212.205 821.778L218.677 826.102L227.315 813.161L233.787 817.484L225.147 830.422L231.619 834.745L248.898 808.866L261.84 817.51Z" fill="#2D2650"/>
<path d="M54.6394 447.074L46.8929 446.344L46.1654 454.09L-0.311262 449.711L1.14376 434.219L47.6207 438.598L49.8032 415.36L3.32626 410.981L4.78129 395.489L51.2585 399.869L50.5308 407.615L58.2772 408.344L54.6394 447.074Z" fill="white"/>
<path d="M57.64 517.344L3.27673 520.596L2.34301 505.063L10.1093 504.599L9.64221 496.832L17.4085 496.368L16.9417 488.601L24.708 488.137L24.2411 480.371L0.942678 481.764L0.00867914 466.231L54.3722 462.98L55.3059 478.513L39.7736 479.441L40.2401 487.208L32.4741 487.672L32.9409 495.439L25.1749 495.903L25.6415 503.67L56.7065 501.812L57.64 517.344Z" fill="white"/>
<path d="M70.8951 578.564L17.6725 590.1L6.12104 536.874L13.7244 535.226L21.9754 573.244L37.1817 569.948L30.5809 539.533L38.184 537.886L44.785 568.301L59.9914 565.004L51.7401 526.986L59.3437 525.338L70.8951 578.564Z" fill="white"/>
<path d="M93.3654 637.035L42.5387 656.583L36.9493 642.059L44.2102 639.267L41.4154 632.005L48.6764 629.212L45.8816 621.951L38.6207 624.743L35.826 617.481L28.565 620.274L22.9758 605.75L73.8025 586.202L79.3917 600.726L50.3479 611.896L53.1426 619.158L67.6645 613.573L70.4592 620.835L55.9373 626.42L58.7321 633.682L87.7759 622.511L93.3654 637.035Z" fill="white"/>
<path d="M161.734 185.547L137.618 213.688L132.405 209.222L131.709 208.625L131.112 209.322L126.647 214.532L92.59 185.342L101.52 174.921L136.273 204.708L136.969 205.304L137.566 204.608L152.754 186.886L153.351 186.19L152.655 185.593L117.901 155.806L126.832 145.386L160.889 174.576L156.424 179.786L155.827 180.482L156.523 181.079L161.734 185.547ZM68.9341 236.763L72.549 230.93L78.3832 234.546L79.1626 235.03L79.6456 234.25L83.2605 228.417L89.0947 232.034L89.8741 232.517L90.3571 231.738L94.455 225.125L94.9379 224.346L94.1587 223.863L75.0971 212.047L82.3269 200.38L127.064 228.113L119.834 239.78L107.386 232.063L106.606 231.58L106.123 232.359L102.509 238.192L96.6745 234.575L95.8951 234.092L95.4121 234.872L91.7973 240.705L85.963 237.088L85.1836 236.605L84.7006 237.384L80.6027 243.996L80.1199 244.776L80.899 245.259L106.574 261.175L99.3443 272.841L54.6076 245.108L61.8375 233.442L67.6717 237.059L68.4511 237.542L68.9341 236.763ZM26.2241 309.988L46.7682 261.542L52.2433 263.865L37.4157 298.831L37.0578 299.675L37.9016 300.033L52.2272 306.112L53.0714 306.47L53.4294 305.626L65.2198 277.822L70.6949 280.145L58.9043 307.949L58.5465 308.793L59.3903 309.151L73.7162 315.23L74.5604 315.588L74.9184 314.744L89.7459 279.778L95.221 282.101L74.6768 330.547L26.2241 309.988ZM8.10853 378.451L11.469 365.143L18.1235 366.825L19.0126 367.05L19.2372 366.161L20.9172 359.507L27.5715 361.189L28.4605 361.414L28.6851 360.525L30.5899 352.982L30.8143 352.093L29.9257 351.869L23.271 350.186L24.9514 343.532L25.1758 342.643L24.2872 342.419L17.6323 340.736L20.993 327.429L72.0195 340.328L68.659 353.636L39.3739 346.233L38.4848 346.008L38.2603 346.897L36.3557 354.44L36.1313 355.329L37.0199 355.553L51.218 359.143L49.7623 364.908L35.5645 361.319L34.6754 361.094L34.4509 361.983L32.546 369.526L32.3216 370.415L33.2102 370.639L62.4955 378.043L59.135 391.351L8.10853 378.451Z" stroke="#DFDC01" stroke-width="1.83364"/>
<path d="M339.461 73.3362L337.555 65.792L330.011 67.698L318.568 22.4374L333.654 18.6283L345.096 63.8885L367.726 58.1735L356.283 12.9129L371.369 9.10372L382.812 54.3643L375.267 56.2702L377.176 63.8117L339.461 73.3362Z" fill="#DFDC01"/>
<path d="M274.248 99.665L252.974 49.5236L267.297 43.4503L270.338 50.6115L277.5 47.5749L280.538 54.7388L287.7 51.702L290.741 58.8631L297.902 55.8266L288.785 34.3377L303.108 28.2645L324.385 78.4033L310.059 84.4792L303.982 70.1513L296.818 73.191L293.779 66.027L286.618 69.0636L283.579 61.8997L276.415 64.9393L288.574 93.5891L274.248 99.665Z" fill="#DFDC01"/>
<path d="M221 132.628L192.302 86.3326L238.589 57.6465L242.689 64.2602L209.626 84.751L217.825 97.9782L244.277 81.5851L248.376 88.1987L221.925 104.592L230.128 117.816L263.188 97.3281L267.288 103.942L221 132.628Z" fill="#DFDC01"/>
<path d="M173.431 173.354L137.982 131.998L149.798 121.872L154.861 127.781L160.767 122.719L165.833 128.626L171.739 123.565L166.674 117.658L172.58 112.596L167.518 106.686L179.331 96.5629L214.777 137.922L202.964 148.045L182.708 124.412L176.802 129.474L186.929 141.29L181.023 146.352L170.895 134.536L164.988 139.598L185.244 163.231L173.431 173.354Z" fill="#DFDC01"/>
<path d="M589.121 65.8884L582.712 63.4252L598.811 21.5691L611.623 26.5004L595.198 69.2101L594.869 70.0656L595.724 70.3948L617.508 78.7798L618.364 79.1092L618.694 78.2533L635.119 35.5441L647.931 40.4754L631.834 82.3291L625.429 79.8636L624.573 79.5342L624.244 80.39L621.779 86.796L587.183 73.4796L589.647 67.0734L589.977 66.2175L589.121 65.8884ZM563.036 35.9294L567.787 14.0147L581.201 16.9279L570.053 68.3588L556.639 65.4456L559.739 51.1365L559.933 50.2409L559.038 50.0464L552.331 48.5899L553.785 41.882L553.979 40.9863L553.084 40.7918L546.376 39.3349L547.828 32.6296L548.022 31.7341L547.126 31.5397L539.524 29.8886L538.627 29.6939L538.433 30.5903L532.037 60.106L518.62 57.1952L529.768 5.76434L543.184 8.6751L541.73 15.3828L541.536 16.2785L542.431 16.473L549.139 17.9298L547.684 24.6377L547.49 25.5338L548.386 25.728L555.096 27.1821L553.641 33.8896L553.447 34.7853L554.343 34.9798L561.946 36.6311L562.842 36.8257L563.036 35.9294ZM502.495 26.7057L502.141 32.6406L471.991 30.8279L471.076 30.7729L471.021 31.6883L470.091 47.2218L470.036 48.1367L470.951 48.1917L508.868 50.4713L508.514 56.4064L455.98 53.2479L459.122 0.715575L511.655 3.87386L511.301 9.80897L473.385 7.52918L472.469 7.47413L472.415 8.38955L471.485 23.923L471.43 24.838L472.345 24.893L502.495 26.7057ZM420.896 18.209L420.251 11.3773L427.085 10.7343L427.998 10.6484L427.912 9.73529L427.267 2.90372L440.933 1.61992L445.873 54.0153L432.206 55.2991L429.372 25.2275L429.286 24.3149L428.373 24.4008L420.626 25.1296L419.713 25.2155L419.799 26.1284L421.173 40.7073L415.254 41.2625L413.88 26.6828L413.794 25.7702L412.881 25.856L405.134 26.5849L404.221 26.6708L404.307 27.5837L407.141 57.655L393.474 58.9388L388.538 6.54072L402.205 5.2569L402.85 12.0891L402.936 13.0012L403.848 12.9157L410.68 12.2751L411.323 19.1099L411.409 20.0227L412.322 19.9368L420.069 19.208L420.982 19.1221L420.896 18.209Z" stroke="#2D2650" stroke-width="1.83364"/>
<path d="M794.285 211.917L790.475 206.209L827.767 181.307L835.391 192.726L797.336 218.137L796.574 218.646L797.083 219.408L810.047 238.819L810.556 239.582L811.319 239.073L849.374 213.662L857 225.078L819.708 249.979L815.894 244.269L815.385 243.506L814.623 244.016L808.916 247.829L788.326 216.997L794.032 213.189L794.794 212.68L794.285 211.917ZM784.638 144.631L789.281 149.686L784.222 154.327L783.546 154.948L784.167 155.623L788.809 160.678L783.751 165.319L783.075 165.939L783.695 166.615L788.958 172.346L789.578 173.02L790.253 172.401L806.773 157.245L816.054 167.361L777.283 202.936L768.002 192.821L778.79 182.924L779.465 182.304L778.845 181.628L774.205 176.57L779.259 171.929L779.934 171.309L779.314 170.634L774.674 165.576L779.73 160.937L780.405 160.317L779.786 159.642L774.525 153.908L773.905 153.233L773.23 153.853L750.979 174.272L741.695 164.154L780.466 128.578L789.752 138.694L784.693 143.336L784.018 143.956L784.638 144.631ZM733.895 157.682L692.789 124.804L725.654 83.7106L766.759 116.587L763.045 121.231L733.378 97.4993L732.662 96.9264L732.089 97.6428L722.373 109.797L721.8 110.513L722.516 111.085L746.106 129.956L742.394 134.597L718.802 115.729L718.086 115.156L717.513 115.872L707.797 128.021L707.224 128.737L707.94 129.309L737.607 153.041L733.895 157.682ZM679.41 65.2101L675.994 71.1641L675.537 71.9593L676.332 72.4156L683.082 76.2882L683.877 76.7446L684.333 75.9492L687.747 69.9982L693.701 73.4145L694.496 73.8708L694.953 73.0756L698.369 67.1218L710.275 73.957L684.089 119.599L672.181 112.766L687.21 86.5708L687.666 85.7756L686.871 85.3194L680.122 81.4467L679.326 80.9904L678.87 81.7857L671.584 94.4853L666.427 91.5232L673.714 78.8227L674.17 78.0275L673.375 77.5713L666.625 73.6986L665.83 73.2423L665.374 74.0376L650.345 100.233L638.437 93.4004L664.625 47.7563L676.531 54.5912L673.117 60.5426L672.661 61.3378L673.456 61.794L679.41 65.2101Z" stroke="#DFDC01" stroke-width="1.83364"/>
<path d="M869.008 449.289L876.785 449.491L876.987 441.712L923.653 442.932L923.251 458.487L876.585 457.267L875.981 480.601L922.647 481.821L922.245 497.377L875.579 496.157L875.781 488.378L868.005 488.176L869.008 449.289Z" fill="white"/>
<path d="M861.252 379.381L915.269 372.452L917.255 387.886L909.537 388.875L910.528 396.594L902.812 397.586L903.804 405.299L896.088 406.291L897.08 414.01L920.229 411.037L922.215 426.471L868.197 433.401L866.212 417.966L881.648 415.988L880.654 408.272L888.37 407.28L887.381 399.564L895.094 398.575L894.103 390.856L863.237 394.815L861.252 379.381Z" fill="white"/>
<path d="M843.877 319.201L896.197 304.082L911.331 356.406L903.855 358.567L893.047 321.192L878.097 325.511L886.745 355.412L879.271 357.571L870.624 327.669L855.677 331.991L866.485 369.361L859.009 371.522L843.877 319.201Z" fill="white"/>
<path d="M817.498 262.386L866.884 239.438L873.444 253.551L866.389 256.826L869.669 263.885L862.613 267.16L865.893 274.219L872.948 270.938L876.231 277.994L883.283 274.716L889.843 288.828L840.463 311.776L833.9 297.666L862.121 284.55L858.841 277.496L844.731 284.052L841.448 276.996L855.558 270.44L852.281 263.384L824.061 276.495L817.498 262.386Z" fill="white"/>
<path d="M793.065 715.71L797.529 710.498L831.59 739.687L822.657 750.11L787.905 720.325L787.209 719.728L786.612 720.424L771.425 738.142L770.829 738.838L771.525 739.435L806.279 769.223L797.349 779.643L763.291 750.452L767.757 745.243L768.354 744.547L767.657 743.95L762.445 739.485L786.562 711.341L791.772 715.809L792.468 716.406L793.065 715.71ZM869.571 679.923L862.342 691.588L856.505 687.969L855.726 687.486L855.243 688.265L851.628 694.098L845.794 690.482L845.015 689.998L844.532 690.778L840.917 696.611L835.083 692.994L834.304 692.511L833.821 693.291L829.723 699.903L829.241 700.682L830.02 701.165L849.083 712.983L841.854 724.649L797.116 696.915L804.346 685.25L816.793 692.966L817.572 693.449L818.055 692.669L821.67 686.837L827.504 690.453L828.283 690.936L828.766 690.157L832.381 684.324L838.215 687.941L838.994 688.424L839.477 687.644L843.575 681.032L844.058 680.253L843.279 679.77L817.604 663.855L824.834 652.189L869.571 679.923ZM870.75 619.402L858.96 647.208L853.485 644.886L865.275 617.08L865.633 616.236L864.789 615.878L850.465 609.8L849.621 609.442L849.263 610.286L834.434 645.251L828.959 642.929L849.501 594.483L897.954 615.04L877.412 663.487L871.936 661.165L886.763 626.197L887.12 625.353L886.277 624.995L871.953 618.916L871.108 618.558L870.75 619.402ZM904.941 558.868L903.262 565.521L896.606 563.838L895.717 563.614L895.493 564.503L893.588 572.048L893.363 572.936L894.252 573.161L900.909 574.844L899.228 581.494L899.004 582.383L899.892 582.608L906.546 584.293L903.185 597.6L852.158 584.7L855.519 571.394L884.804 578.796L885.693 579.02L885.917 578.132L887.825 570.59L888.05 569.701L887.161 569.476L872.959 565.886L874.417 560.121L888.614 563.711L889.503 563.936L889.728 563.047L891.633 555.502L891.857 554.613L890.969 554.389L861.683 546.986L865.045 533.68L916.072 546.579L912.711 559.886L906.054 558.203L905.165 557.979L904.941 558.868Z" stroke="#2D2650" stroke-width="1.83364"/>
<path d="M584.717 851.692L586.625 859.237L594.169 857.333L605.61 902.593L590.525 906.403L579.081 861.141L556.453 866.856L567.897 912.118L552.809 915.926L541.368 870.666L548.912 868.762L547.003 861.218L584.717 851.692Z" fill="#DFDC01"/>
<path d="M649.929 825.365L671.206 875.507L656.88 881.58L653.842 874.417L646.681 877.456L643.64 870.291L636.48 873.33L633.438 866.165L626.278 869.204L635.394 890.691L621.071 896.766L599.797 846.627L614.12 840.551L620.197 854.876L627.36 851.84L630.399 859.003L637.562 855.966L640.601 863.129L647.764 860.093L635.606 831.44L649.929 825.365Z" fill="#DFDC01"/>
<path d="M703.177 792.403L731.878 838.698L685.592 867.383L681.492 860.77L714.551 840.278L706.352 827.051L679.903 843.442L675.803 836.829L702.252 820.438L694.053 807.211L660.991 827.7L656.892 821.087L703.177 792.403Z" fill="#DFDC01"/>
<path d="M750.75 751.675L786.194 793.032L774.381 803.156L769.319 797.247L763.414 802.31L758.349 796.403L752.441 801.464L757.503 807.373L751.598 812.436L756.663 818.343L744.85 828.467L709.401 787.11L721.217 776.983L741.468 800.618L747.379 795.555L737.252 783.739L743.157 778.675L753.284 790.491L759.192 785.431L738.937 761.799L750.75 751.675Z" fill="#DFDC01"/>
</g>
</g>
<defs>
<clipPath id="clip0_1224_5064">
<rect width="924.444" height="926" fill="white"/>
</clipPath>
<clipPath id="clip1_1224_5064">
<rect width="924.153" height="925.987" fill="white" transform="translate(-191.833 461.813) rotate(-45)"/>
</clipPath>
</defs>
</svg>
