<svg width="330" height="78" viewBox="0 0 330 78" fill="none" xmlns="http://www.w3.org/2000/svg">
<mask id="path-1-outside-1_4102_782" maskUnits="userSpaceOnUse" x="0" y="0" width="330" height="78" fill="black">
<rect fill="white" width="330" height="78"/>
<path d="M4 74V4H64V14H24V34H64V44H74V64H64V74H4ZM24 64H54V44H24V64ZM108 74V64H98V54H88V24H98V14H108V4H148V14H158V24H138V14H118V24H108V54H118V64H138V54H158V64H148V74H108ZM172 74V4H232V14H192V34H232V44H242V64H232V74H172ZM192 64H222V44H192V64ZM266 44V34H326V44H266Z"/>
</mask>
<path d="M4 74V4H64V14H24V34H64V44H74V64H64V74H4ZM24 64H54V44H24V64ZM108 74V64H98V54H88V24H98V14H108V4H148V14H158V24H138V14H118V24H108V54H118V64H138V54H158V64H148V74H108ZM172 74V4H232V14H192V34H232V44H242V64H232V74H172ZM192 64H222V44H192V64ZM266 44V34H326V44H266Z" fill="url(#paint0_linear_4102_782)"/>
<path d="M4 74H0V78H4V74ZM4 4V0H0V4H4ZM64 4H68V0H64V4ZM64 14V18H68V14H64ZM24 14V10H20V14H24ZM24 34H20V38H24V34ZM64 34H68V30H64V34ZM64 44H60V48H64V44ZM74 44H78V40H74V44ZM74 64V68H78V64H74ZM64 64V60H60V64H64ZM64 74V78H68V74H64ZM24 64H20V68H24V64ZM54 64V68H58V64H54ZM54 44H58V40H54V44ZM24 44V40H20V44H24ZM8 74V4H0V74H8ZM4 8H64V0H4V8ZM60 4V14H68V4H60ZM64 10H24V18H64V10ZM20 14V34H28V14H20ZM24 38H64V30H24V38ZM60 34V44H68V34H60ZM64 48H74V40H64V48ZM70 44V64H78V44H70ZM74 60H64V68H74V60ZM60 64V74H68V64H60ZM64 70H4V78H64V70ZM24 68H54V60H24V68ZM58 64V44H50V64H58ZM54 40H24V48H54V40ZM20 44V64H28V44H20ZM108 74H104V78H108V74ZM108 64H112V60H108V64ZM98 64H94V68H98V64ZM98 54H102V50H98V54ZM88 54H84V58H88V54ZM88 24V20H84V24H88ZM98 24V28H102V24H98ZM98 14V10H94V14H98ZM108 14V18H112V14H108ZM108 4V0H104V4H108ZM148 4H152V0H148V4ZM148 14H144V18H148V14ZM158 14H162V10H158V14ZM158 24V28H162V24H158ZM138 24H134V28H138V24ZM138 14H142V10H138V14ZM118 14V10H114V14H118ZM118 24V28H122V24H118ZM108 24V20H104V24H108ZM108 54H104V58H108V54ZM118 54H122V50H118V54ZM118 64H114V68H118V64ZM138 64V68H142V64H138ZM138 54V50H134V54H138ZM158 54H162V50H158V54ZM158 64V68H162V64H158ZM148 64V60H144V64H148ZM148 74V78H152V74H148ZM112 74V64H104V74H112ZM108 60H98V68H108V60ZM102 64V54H94V64H102ZM98 50H88V58H98V50ZM92 54V24H84V54H92ZM88 28H98V20H88V28ZM102 24V14H94V24H102ZM98 18H108V10H98V18ZM112 14V4H104V14H112ZM108 8H148V0H108V8ZM144 4V14H152V4H144ZM148 18H158V10H148V18ZM154 14V24H162V14H154ZM158 20H138V28H158V20ZM142 24V14H134V24H142ZM138 10H118V18H138V10ZM114 14V24H122V14H114ZM118 20H108V28H118V20ZM104 24V54H112V24H104ZM108 58H118V50H108V58ZM114 54V64H122V54H114ZM118 68H138V60H118V68ZM142 64V54H134V64H142ZM138 58H158V50H138V58ZM154 54V64H162V54H154ZM158 60H148V68H158V60ZM144 64V74H152V64H144ZM148 70H108V78H148V70ZM172 74H168V78H172V74ZM172 4V0H168V4H172ZM232 4H236V0H232V4ZM232 14V18H236V14H232ZM192 14V10H188V14H192ZM192 34H188V38H192V34ZM232 34H236V30H232V34ZM232 44H228V48H232V44ZM242 44H246V40H242V44ZM242 64V68H246V64H242ZM232 64V60H228V64H232ZM232 74V78H236V74H232ZM192 64H188V68H192V64ZM222 64V68H226V64H222ZM222 44H226V40H222V44ZM192 44V40H188V44H192ZM176 74V4H168V74H176ZM172 8H232V0H172V8ZM228 4V14H236V4H228ZM232 10H192V18H232V10ZM188 14V34H196V14H188ZM192 38H232V30H192V38ZM228 34V44H236V34H228ZM232 48H242V40H232V48ZM238 44V64H246V44H238ZM242 60H232V68H242V60ZM228 64V74H236V64H228ZM232 70H172V78H232V70ZM192 68H222V60H192V68ZM226 64V44H218V64H226ZM222 40H192V48H222V40ZM188 44V64H196V44H188ZM266 44H262V48H266V44ZM266 34V30H262V34H266ZM326 34H330V30H326V34ZM326 44V48H330V44H326ZM270 44V34H262V44H270ZM266 38H326V30H266V38ZM322 34V44H330V34H322ZM326 40H266V48H326V40Z" fill="#2D2650" mask="url(#path-1-outside-1_4102_782)"/>
<defs>
<linearGradient id="paint0_linear_4102_782" x1="157" y1="-107.5" x2="35.5" y2="272" gradientUnits="userSpaceOnUse">
<stop offset="0.359275" stop-color="#2D2650"/>
<stop offset="0.359375" stop-color="#DFDC01"/>
</linearGradient>
</defs>
</svg>
