<svg width="916" height="916" viewBox="0 0 916 916" fill="none" xmlns="http://www.w3.org/2000/svg">
<path d="M320.28 320.28H598.923V598.923H320.28V320.28Z" fill="#2D2650"/>
<path fill-rule="evenodd" clip-rule="evenodd" d="M916 458C916 710.946 710.946 916 458 916C205.054 916 0 710.946 0 458C0 205.054 205.054 0 458 0C710.946 0 916 205.054 916 458ZM458 784.685C636.654 784.685 781.482 639.857 781.482 461.203C781.482 282.548 636.654 137.72 458 137.72C279.346 137.72 134.517 282.548 134.517 461.203C134.517 639.857 279.346 784.685 458 784.685Z" fill="#DFDC01"/>
</svg>
